ISO-10303-21;
HEADER;
/* Generated by software containing ST-Developer
 * from STEP Tools, Inc. (www.steptools.com) 
 */
/* OPTION: using custom renumber hook */

FILE_DESCRIPTION(
/* description */ ('STEP AP242 Edition 2',
'CAx-IF Rec.Pracs.---Representation and Presentation of Product Manufa
cturing Information (PMI)---4.0---2014-10-13',
'CAx-IF Rec.Pracs.---3D Tessellated Geometry---0.4---2014-09-14','2;1',
'CAx-IF Rec.Pracs.---User Defined Attributes---1.5---2016-08-15'),
/* implementation_level */ '2;1');

FILE_NAME(
/* name */ 'Nous A1 - top',
/* time_stamp */ '2026-08-23T20:37:36Z',
/* author */ (''),
/* organization */ (''),
/* preprocessor_version */ 'ST-DEVELOPER v20',
/* originating_system */ 'ONSHAPE BY PTC INC, 1.219',
/* authorisation */ '  ');

FILE_SCHEMA (('AP242_MANAGED_MODEL_BASED_3D_ENGINEERING_MIM_LF { 1 0 10303 442 3 1 4 }'));
ENDSEC;

DATA;
#10=SHAPE_REPRESENTATION_RELATIONSHIP('','',#365,#11);
#11=ADVANCED_BREP_SHAPE_REPRESENTATION('',(#363),#591);
#12=ELLIPSE('',#371,0.0324562012564625,0.02295);
#13=ELLIPSE('',#372,0.0324562012564625,0.02295);
#14=ELLIPSE('',#373,0.0324562012564625,0.02295);
#15=ELLIPSE('',#374,0.0324562012564625,0.02295);
#16=CIRCLE('',#369,0.02295);
#17=CIRCLE('',#370,0.02295);
#18=CIRCLE('',#376,0.01545);
#19=CIRCLE('',#378,0.02025);
#20=CIRCLE('',#387,0.02025);
#21=CIRCLE('',#391,0.01545);
#22=CYLINDRICAL_SURFACE('',#368,0.02295);
#23=CYLINDRICAL_SURFACE('',#386,0.02025);
#24=CYLINDRICAL_SURFACE('',#390,0.01545);
#25=ORIENTED_EDGE('',*,*,#121,.T.);
#26=ORIENTED_EDGE('',*,*,#122,.F.);
#27=ORIENTED_EDGE('',*,*,#123,.T.);
#28=ORIENTED_EDGE('',*,*,#124,.T.);
#29=ORIENTED_EDGE('',*,*,#125,.F.);
#30=ORIENTED_EDGE('',*,*,#126,.F.);
#31=ORIENTED_EDGE('',*,*,#127,.T.);
#32=ORIENTED_EDGE('',*,*,#128,.T.);
#33=ORIENTED_EDGE('',*,*,#125,.T.);
#34=ORIENTED_EDGE('',*,*,#129,.F.);
#35=ORIENTED_EDGE('',*,*,#130,.T.);
#36=ORIENTED_EDGE('',*,*,#131,.T.);
#37=ORIENTED_EDGE('',*,*,#132,.T.);
#38=ORIENTED_EDGE('',*,*,#133,.T.);
#39=ORIENTED_EDGE('',*,*,#134,.T.);
#40=ORIENTED_EDGE('',*,*,#135,.T.);
#41=ORIENTED_EDGE('',*,*,#136,.T.);
#42=ORIENTED_EDGE('',*,*,#137,.T.);
#43=ORIENTED_EDGE('',*,*,#138,.F.);
#44=ORIENTED_EDGE('',*,*,#139,.F.);
#45=ORIENTED_EDGE('',*,*,#140,.F.);
#46=ORIENTED_EDGE('',*,*,#141,.F.);
#47=ORIENTED_EDGE('',*,*,#142,.T.);
#48=ORIENTED_EDGE('',*,*,#143,.T.);
#49=ORIENTED_EDGE('',*,*,#144,.T.);
#50=ORIENTED_EDGE('',*,*,#145,.T.);
#51=ORIENTED_EDGE('',*,*,#146,.T.);
#52=ORIENTED_EDGE('',*,*,#129,.T.);
#53=ORIENTED_EDGE('',*,*,#124,.F.);
#54=ORIENTED_EDGE('',*,*,#147,.F.);
#55=ORIENTED_EDGE('',*,*,#128,.F.);
#56=ORIENTED_EDGE('',*,*,#148,.T.);
#57=ORIENTED_EDGE('',*,*,#149,.T.);
#58=ORIENTED_EDGE('',*,*,#126,.T.);
#59=ORIENTED_EDGE('',*,*,#133,.F.);
#60=ORIENTED_EDGE('',*,*,#150,.T.);
#61=ORIENTED_EDGE('',*,*,#141,.T.);
#62=ORIENTED_EDGE('',*,*,#151,.F.);
#63=ORIENTED_EDGE('',*,*,#152,.F.);
#64=ORIENTED_EDGE('',*,*,#131,.F.);
#65=ORIENTED_EDGE('',*,*,#153,.T.);
#66=ORIENTED_EDGE('',*,*,#154,.F.);
#67=ORIENTED_EDGE('',*,*,#139,.T.);
#68=ORIENTED_EDGE('',*,*,#155,.F.);
#69=ORIENTED_EDGE('',*,*,#132,.F.);
#70=ORIENTED_EDGE('',*,*,#155,.T.);
#71=ORIENTED_EDGE('',*,*,#138,.T.);
#72=ORIENTED_EDGE('',*,*,#150,.F.);
#73=ORIENTED_EDGE('',*,*,#136,.F.);
#74=ORIENTED_EDGE('',*,*,#156,.T.);
#75=ORIENTED_EDGE('',*,*,#157,.T.);
#76=ORIENTED_EDGE('',*,*,#143,.F.);
#77=ORIENTED_EDGE('',*,*,#158,.F.);
#78=ORIENTED_EDGE('',*,*,#134,.F.);
#79=ORIENTED_EDGE('',*,*,#159,.T.);
#80=ORIENTED_EDGE('',*,*,#145,.F.);
#81=ORIENTED_EDGE('',*,*,#160,.T.);
#82=ORIENTED_EDGE('',*,*,#161,.F.);
#83=ORIENTED_EDGE('',*,*,#137,.F.);
#84=ORIENTED_EDGE('',*,*,#158,.T.);
#85=ORIENTED_EDGE('',*,*,#142,.F.);
#86=ORIENTED_EDGE('',*,*,#159,.F.);
#87=ORIENTED_EDGE('',*,*,#162,.T.);
#88=ORIENTED_EDGE('',*,*,#163,.F.);
#89=ORIENTED_EDGE('',*,*,#148,.F.);
#90=ORIENTED_EDGE('',*,*,#127,.F.);
#91=ORIENTED_EDGE('',*,*,#146,.F.);
#92=ORIENTED_EDGE('',*,*,#164,.F.);
#93=ORIENTED_EDGE('',*,*,#149,.F.);
#94=ORIENTED_EDGE('',*,*,#163,.T.);
#95=ORIENTED_EDGE('',*,*,#165,.T.);
#96=ORIENTED_EDGE('',*,*,#121,.F.);
#97=ORIENTED_EDGE('',*,*,#153,.F.);
#98=ORIENTED_EDGE('',*,*,#130,.F.);
#99=ORIENTED_EDGE('',*,*,#152,.T.);
#100=ORIENTED_EDGE('',*,*,#166,.F.);
#101=ORIENTED_EDGE('',*,*,#140,.T.);
#102=ORIENTED_EDGE('',*,*,#154,.T.);
#103=ORIENTED_EDGE('',*,*,#166,.T.);
#104=ORIENTED_EDGE('',*,*,#151,.T.);
#105=ORIENTED_EDGE('',*,*,#123,.F.);
#106=ORIENTED_EDGE('',*,*,#167,.F.);
#107=ORIENTED_EDGE('',*,*,#164,.T.);
#108=ORIENTED_EDGE('',*,*,#147,.T.);
#109=ORIENTED_EDGE('',*,*,#135,.F.);
#110=ORIENTED_EDGE('',*,*,#161,.T.);
#111=ORIENTED_EDGE('',*,*,#168,.T.);
#112=ORIENTED_EDGE('',*,*,#156,.F.);
#113=ORIENTED_EDGE('',*,*,#144,.F.);
#114=ORIENTED_EDGE('',*,*,#157,.F.);
#115=ORIENTED_EDGE('',*,*,#168,.F.);
#116=ORIENTED_EDGE('',*,*,#160,.F.);
#117=ORIENTED_EDGE('',*,*,#165,.F.);
#118=ORIENTED_EDGE('',*,*,#162,.F.);
#119=ORIENTED_EDGE('',*,*,#167,.T.);
#120=ORIENTED_EDGE('',*,*,#122,.T.);
#121=EDGE_CURVE('',#169,#170,#201,.T.);
#122=EDGE_CURVE('',#171,#170,#202,.F.);
#123=EDGE_CURVE('',#171,#172,#203,.T.);
#124=EDGE_CURVE('',#172,#173,#204,.T.);
#125=EDGE_CURVE('',#174,#173,#205,.T.);
#126=EDGE_CURVE('',#169,#174,#206,.T.);
#127=EDGE_CURVE('',#175,#176,#207,.F.);
#128=EDGE_CURVE('',#176,#174,#16,.T.);
#129=EDGE_CURVE('',#175,#173,#17,.T.);
#130=EDGE_CURVE('',#177,#178,#12,.F.);
#131=EDGE_CURVE('',#178,#179,#208,.T.);
#132=EDGE_CURVE('',#179,#180,#13,.T.);
#133=EDGE_CURVE('',#180,#177,#209,.F.);
#134=EDGE_CURVE('',#181,#182,#210,.F.);
#135=EDGE_CURVE('',#182,#183,#14,.F.);
#136=EDGE_CURVE('',#183,#184,#211,.T.);
#137=EDGE_CURVE('',#184,#181,#15,.T.);
#138=EDGE_CURVE('',#185,#186,#212,.T.);
#139=EDGE_CURVE('',#187,#185,#213,.T.);
#140=EDGE_CURVE('',#188,#187,#214,.T.);
#141=EDGE_CURVE('',#186,#188,#215,.F.);
#142=EDGE_CURVE('',#189,#190,#216,.T.);
#143=EDGE_CURVE('',#190,#191,#217,.F.);
#144=EDGE_CURVE('',#191,#192,#218,.T.);
#145=EDGE_CURVE('',#192,#189,#219,.T.);
#146=EDGE_CURVE('',#193,#175,#220,.T.);
#147=EDGE_CURVE('',#193,#172,#18,.T.);
#148=EDGE_CURVE('',#176,#194,#221,.F.);
#149=EDGE_CURVE('',#194,#169,#19,.T.);
#150=EDGE_CURVE('',#180,#186,#222,.T.);
#151=EDGE_CURVE('',#195,#188,#223,.T.);
#152=EDGE_CURVE('',#177,#195,#224,.T.);
#153=EDGE_CURVE('',#178,#196,#225,.T.);
#154=EDGE_CURVE('',#187,#196,#226,.T.);
#155=EDGE_CURVE('',#179,#185,#227,.T.);
#156=EDGE_CURVE('',#183,#197,#228,.T.);
#157=EDGE_CURVE('',#197,#191,#229,.T.);
#158=EDGE_CURVE('',#184,#190,#230,.T.);
#159=EDGE_CURVE('',#181,#189,#231,.T.);
#160=EDGE_CURVE('',#192,#198,#232,.T.);
#161=EDGE_CURVE('',#182,#198,#233,.T.);
#162=EDGE_CURVE('',#199,#200,#234,.F.);
#163=EDGE_CURVE('',#194,#200,#235,.T.);
#164=EDGE_CURVE('',#199,#193,#236,.T.);
#165=EDGE_CURVE('',#200,#170,#20,.T.);
#166=EDGE_CURVE('',#196,#195,#237,.T.);
#167=EDGE_CURVE('',#199,#171,#21,.T.);
#168=EDGE_CURVE('',#198,#197,#238,.T.);
#169=VERTEX_POINT('',#494);
#170=VERTEX_POINT('',#495);
#171=VERTEX_POINT('',#497);
#172=VERTEX_POINT('',#499);
#173=VERTEX_POINT('',#501);
#174=VERTEX_POINT('',#503);
#175=VERTEX_POINT('',#507);
#176=VERTEX_POINT('',#508);
#177=VERTEX_POINT('',#512);
#178=VERTEX_POINT('',#513);
#179=VERTEX_POINT('',#515);
#180=VERTEX_POINT('',#517);
#181=VERTEX_POINT('',#520);
#182=VERTEX_POINT('',#521);
#183=VERTEX_POINT('',#523);
#184=VERTEX_POINT('',#525);
#185=VERTEX_POINT('',#529);
#186=VERTEX_POINT('',#530);
#187=VERTEX_POINT('',#532);
#188=VERTEX_POINT('',#534);
#189=VERTEX_POINT('',#537);
#190=VERTEX_POINT('',#538);
#191=VERTEX_POINT('',#540);
#192=VERTEX_POINT('',#542);
#193=VERTEX_POINT('',#545);
#194=VERTEX_POINT('',#549);
#195=VERTEX_POINT('',#554);
#196=VERTEX_POINT('',#558);
#197=VERTEX_POINT('',#564);
#198=VERTEX_POINT('',#570);
#199=VERTEX_POINT('',#575);
#200=VERTEX_POINT('',#576);
#201=LINE('',#493,#239);
#202=LINE('',#496,#240);
#203=LINE('',#498,#241);
#204=LINE('',#500,#242);
#205=LINE('',#502,#243);
#206=LINE('',#504,#244);
#207=LINE('',#506,#245);
#208=LINE('',#514,#246);
#209=LINE('',#518,#247);
#210=LINE('',#519,#248);
#211=LINE('',#524,#249);
#212=LINE('',#528,#250);
#213=LINE('',#531,#251);
#214=LINE('',#533,#252);
#215=LINE('',#535,#253);
#216=LINE('',#536,#254);
#217=LINE('',#539,#255);
#218=LINE('',#541,#256);
#219=LINE('',#543,#257);
#220=LINE('',#544,#258);
#221=LINE('',#548,#259);
#222=LINE('',#552,#260);
#223=LINE('',#553,#261);
#224=LINE('',#555,#262);
#225=LINE('',#557,#263);
#226=LINE('',#559,#264);
#227=LINE('',#560,#265);
#228=LINE('',#563,#266);
#229=LINE('',#565,#267);
#230=LINE('',#566,#268);
#231=LINE('',#568,#269);
#232=LINE('',#569,#270);
#233=LINE('',#571,#271);
#234=LINE('',#574,#272);
#235=LINE('',#577,#273);
#236=LINE('',#578,#274);
#237=LINE('',#582,#275);
#238=LINE('',#587,#276);
#239=VECTOR('',#399,1.);
#240=VECTOR('',#400,1.);
#241=VECTOR('',#401,1.);
#242=VECTOR('',#402,1.);
#243=VECTOR('',#403,1.);
#244=VECTOR('',#404,1.);
#245=VECTOR('',#407,1.);
#246=VECTOR('',#414,1.);
#247=VECTOR('',#417,1.);
#248=VECTOR('',#418,1.);
#249=VECTOR('',#421,1.);
#250=VECTOR('',#426,1.);
#251=VECTOR('',#427,1.);
#252=VECTOR('',#428,1.);
#253=VECTOR('',#429,1.);
#254=VECTOR('',#430,1.);
#255=VECTOR('',#431,1.);
#256=VECTOR('',#432,1.);
#257=VECTOR('',#433,1.);
#258=VECTOR('',#434,1.);
#259=VECTOR('',#439,1.);
#260=VECTOR('',#444,1.);
#261=VECTOR('',#445,1.);
#262=VECTOR('',#446,1.);
#263=VECTOR('',#449,1.);
#264=VECTOR('',#450,1.);
#265=VECTOR('',#451,1.);
#266=VECTOR('',#456,1.);
#267=VECTOR('',#457,1.);
#268=VECTOR('',#458,1.);
#269=VECTOR('',#461,1.);
#270=VECTOR('',#462,1.);
#271=VECTOR('',#463,1.);
#272=VECTOR('',#468,1.);
#273=VECTOR('',#469,1.);
#274=VECTOR('',#470,1.);
#275=VECTOR('',#477,1.);
#276=VECTOR('',#486,1.);
#277=EDGE_LOOP('',(#25,#26,#27,#28,#29,#30));
#278=EDGE_LOOP('',(#31,#32,#33,#34));
#279=EDGE_LOOP('',(#35,#36,#37,#38));
#280=EDGE_LOOP('',(#39,#40,#41,#42));
#281=EDGE_LOOP('',(#43,#44,#45,#46));
#282=EDGE_LOOP('',(#47,#48,#49,#50));
#283=EDGE_LOOP('',(#51,#52,#53,#54));
#284=EDGE_LOOP('',(#55,#56,#57,#58));
#285=EDGE_LOOP('',(#59,#60,#61,#62,#63));
#286=EDGE_LOOP('',(#64,#65,#66,#67,#68));
#287=EDGE_LOOP('',(#69,#70,#71,#72));
#288=EDGE_LOOP('',(#73,#74,#75,#76,#77));
#289=EDGE_LOOP('',(#78,#79,#80,#81,#82));
#290=EDGE_LOOP('',(#83,#84,#85,#86));
#291=EDGE_LOOP('',(#87,#88,#89,#90,#91,#92));
#292=EDGE_LOOP('',(#93,#94,#95,#96));
#293=EDGE_LOOP('',(#97,#98,#99,#100));
#294=EDGE_LOOP('',(#101,#102,#103,#104));
#295=EDGE_LOOP('',(#105,#106,#107,#108));
#296=EDGE_LOOP('',(#109,#110,#111,#112));
#297=EDGE_LOOP('',(#113,#114,#115,#116));
#298=EDGE_LOOP('',(#117,#118,#119,#120));
#299=FACE_BOUND('',#277,.T.);
#300=FACE_BOUND('',#278,.T.);
#301=FACE_BOUND('',#279,.T.);
#302=FACE_BOUND('',#280,.T.);
#303=FACE_BOUND('',#281,.T.);
#304=FACE_BOUND('',#282,.T.);
#305=FACE_BOUND('',#283,.T.);
#306=FACE_BOUND('',#284,.T.);
#307=FACE_BOUND('',#285,.T.);
#308=FACE_BOUND('',#286,.T.);
#309=FACE_BOUND('',#287,.T.);
#310=FACE_BOUND('',#288,.T.);
#311=FACE_BOUND('',#289,.T.);
#312=FACE_BOUND('',#290,.T.);
#313=FACE_BOUND('',#291,.T.);
#314=FACE_BOUND('',#292,.T.);
#315=FACE_BOUND('',#293,.T.);
#316=FACE_BOUND('',#294,.T.);
#317=FACE_BOUND('',#295,.T.);
#318=FACE_BOUND('',#296,.T.);
#319=FACE_BOUND('',#297,.T.);
#320=FACE_BOUND('',#298,.T.);
#321=PLANE('',#367);
#322=PLANE('',#375);
#323=PLANE('',#377);
#324=PLANE('',#379);
#325=PLANE('',#380);
#326=PLANE('',#381);
#327=PLANE('',#382);
#328=PLANE('',#383);
#329=PLANE('',#384);
#330=PLANE('',#385);
#331=PLANE('',#388);
#332=PLANE('',#389);
#333=PLANE('',#392);
#334=PLANE('',#393);
#335=PLANE('',#394);
#336=ADVANCED_FACE('',(#299),#321,.F.);
#337=ADVANCED_FACE('',(#300,#301,#302),#22,.T.);
#338=ADVANCED_FACE('',(#303,#304,#305),#322,.T.);
#339=ADVANCED_FACE('',(#306),#323,.F.);
#340=ADVANCED_FACE('',(#307),#324,.T.);
#341=ADVANCED_FACE('',(#308),#325,.F.);
#342=ADVANCED_FACE('',(#309),#326,.F.);
#343=ADVANCED_FACE('',(#310),#327,.T.);
#344=ADVANCED_FACE('',(#311),#328,.F.);
#345=ADVANCED_FACE('',(#312),#329,.F.);
#346=ADVANCED_FACE('',(#313),#330,.F.);
#347=ADVANCED_FACE('',(#314),#23,.F.);
#348=ADVANCED_FACE('',(#315),#331,.T.);
#349=ADVANCED_FACE('',(#316),#332,.F.);
#350=ADVANCED_FACE('',(#317),#24,.F.);
#351=ADVANCED_FACE('',(#318),#333,.T.);
#352=ADVANCED_FACE('',(#319),#334,.F.);
#353=ADVANCED_FACE('',(#320),#335,.F.);
#354=CLOSED_SHELL('',(#336,#337,#338,#339,#340,#341,#342,#343,#344,#345,
#346,#347,#348,#349,#350,#351,#352,#353));
#355=STYLED_ITEM('',(#356),#363);
#356=PRESENTATION_STYLE_ASSIGNMENT((#357));
#357=SURFACE_STYLE_USAGE(.BOTH.,#358);
#358=SURFACE_SIDE_STYLE('',(#359));
#359=SURFACE_STYLE_FILL_AREA(#360);
#360=FILL_AREA_STYLE('',(#361));
#361=FILL_AREA_STYLE_COLOUR('',#362);
#362=COLOUR_RGB('',0.647058823529412,0.647058823529412,0.647058823529412);
#363=MANIFOLD_SOLID_BREP('top',#354);
#364=SHAPE_DEFINITION_REPRESENTATION(#596,#365);
#365=SHAPE_REPRESENTATION('top',(#366),#591);
#366=AXIS2_PLACEMENT_3D('',#491,#395,#396);
#367=AXIS2_PLACEMENT_3D('',#492,#397,#398);
#368=AXIS2_PLACEMENT_3D('',#505,#405,#406);
#369=AXIS2_PLACEMENT_3D('',#509,#408,#409);
#370=AXIS2_PLACEMENT_3D('',#510,#410,#411);
#371=AXIS2_PLACEMENT_3D('',#511,#412,#413);
#372=AXIS2_PLACEMENT_3D('',#516,#415,#416);
#373=AXIS2_PLACEMENT_3D('',#522,#419,#420);
#374=AXIS2_PLACEMENT_3D('',#526,#422,#423);
#375=AXIS2_PLACEMENT_3D('',#527,#424,#425);
#376=AXIS2_PLACEMENT_3D('',#546,#435,#436);
#377=AXIS2_PLACEMENT_3D('',#547,#437,#438);
#378=AXIS2_PLACEMENT_3D('',#550,#440,#441);
#379=AXIS2_PLACEMENT_3D('',#551,#442,#443);
#380=AXIS2_PLACEMENT_3D('',#556,#447,#448);
#381=AXIS2_PLACEMENT_3D('',#561,#452,#453);
#382=AXIS2_PLACEMENT_3D('',#562,#454,#455);
#383=AXIS2_PLACEMENT_3D('',#567,#459,#460);
#384=AXIS2_PLACEMENT_3D('',#572,#464,#465);
#385=AXIS2_PLACEMENT_3D('',#573,#466,#467);
#386=AXIS2_PLACEMENT_3D('',#579,#471,#472);
#387=AXIS2_PLACEMENT_3D('',#580,#473,#474);
#388=AXIS2_PLACEMENT_3D('',#581,#475,#476);
#389=AXIS2_PLACEMENT_3D('',#583,#478,#479);
#390=AXIS2_PLACEMENT_3D('',#584,#480,#481);
#391=AXIS2_PLACEMENT_3D('',#585,#482,#483);
#392=AXIS2_PLACEMENT_3D('',#586,#484,#485);
#393=AXIS2_PLACEMENT_3D('',#588,#487,#488);
#394=AXIS2_PLACEMENT_3D('',#589,#489,#490);
#395=DIRECTION('',(0.,0.,1.));
#396=DIRECTION('',(1.,0.,0.));
#397=DIRECTION('',(-1.,0.,0.));
#398=DIRECTION('',(0.,-1.,0.));
#399=DIRECTION('',(0.,0.,1.));
#400=DIRECTION('',(0.,1.,0.));
#401=DIRECTION('',(0.,0.,1.));
#402=DIRECTION('',(0.,-1.,0.));
#403=DIRECTION('',(0.,0.,1.));
#404=DIRECTION('',(0.,-1.,0.));
#405=DIRECTION('',(0.,0.,1.));
#406=DIRECTION('',(1.,0.,0.));
#407=DIRECTION('',(0.,0.,1.));
#408=DIRECTION('',(0.,0.,1.));
#409=DIRECTION('',(1.,0.,0.));
#410=DIRECTION('',(0.,0.,1.));
#411=DIRECTION('',(1.,0.,0.));
#412=DIRECTION('',(-0.707106781186547,0.,0.707106781186548));
#413=DIRECTION('',(0.707106781186548,0.,0.707106781186547));
#414=DIRECTION('',(0.,0.,1.));
#415=DIRECTION('',(-0.707106781186547,0.,0.707106781186548));
#416=DIRECTION('',(0.707106781186548,0.,0.707106781186547));
#417=DIRECTION('',(0.,0.,1.));
#418=DIRECTION('',(0.,0.,1.));
#419=DIRECTION('',(0.707106781186547,0.,0.707106781186548));
#420=DIRECTION('',(-0.707106781186548,0.,0.707106781186547));
#421=DIRECTION('',(0.,0.,1.));
#422=DIRECTION('',(0.707106781186547,0.,0.707106781186548));
#423=DIRECTION('',(-0.707106781186548,0.,0.707106781186547));
#424=DIRECTION('',(0.,0.,1.));
#425=DIRECTION('',(1.,0.,0.));
#426=DIRECTION('',(0.,-1.,0.));
#427=DIRECTION('',(-1.,0.,0.));
#428=DIRECTION('',(0.,1.,0.));
#429=DIRECTION('',(-1.,-2.04439122224449E-16,0.));
#430=DIRECTION('',(0.,-1.,0.));
#431=DIRECTION('',(1.,-2.04439122224449E-16,0.));
#432=DIRECTION('',(0.,1.,0.));
#433=DIRECTION('',(1.,0.,0.));
#434=DIRECTION('',(0.,-1.,0.));
#435=DIRECTION('',(0.,0.,1.));
#436=DIRECTION('',(1.,0.,0.));
#437=DIRECTION('',(0.,0.,1.));
#438=DIRECTION('',(1.,0.,0.));
#439=DIRECTION('',(0.,-1.,0.));
#440=DIRECTION('',(0.,0.,1.));
#441=DIRECTION('',(1.,0.,0.));
#442=DIRECTION('',(-2.04439122224449E-16,1.,2.0443912222445E-16));
#443=DIRECTION('',(-0.707106781186547,-2.89120579329468E-16,0.707106781186549));
#444=DIRECTION('',(0.707106781186548,0.,0.707106781186547));
#445=DIRECTION('',(-0.707106781186547,-2.89120579329468E-16,0.707106781186549));
#446=DIRECTION('',(0.707106781186548,0.,0.707106781186547));
#447=DIRECTION('',(0.,1.,0.));
#448=DIRECTION('',(-0.707106781186547,0.,0.707106781186548));
#449=DIRECTION('',(0.707106781186548,0.,0.707106781186547));
#450=DIRECTION('',(0.707106781186547,0.,-0.707106781186548));
#451=DIRECTION('',(0.707106781186548,0.,0.707106781186547));
#452=DIRECTION('',(-0.707106781186547,0.,0.707106781186548));
#453=DIRECTION('',(0.,-1.,0.));
#454=DIRECTION('',(2.04439122224449E-16,1.,2.0443912222445E-16));
#455=DIRECTION('',(0.707106781186547,-2.89120579329468E-16,0.707106781186549));
#456=DIRECTION('',(-0.707106781186548,0.,0.707106781186547));
#457=DIRECTION('',(0.707106781186547,-2.89120579329468E-16,0.707106781186549));
#458=DIRECTION('',(-0.707106781186548,0.,0.707106781186547));
#459=DIRECTION('',(0.,1.,0.));
#460=DIRECTION('',(0.707106781186547,0.,0.707106781186548));
#461=DIRECTION('',(-0.707106781186548,0.,0.707106781186547));
#462=DIRECTION('',(-0.707106781186547,0.,-0.707106781186548));
#463=DIRECTION('',(-0.707106781186548,0.,0.707106781186547));
#464=DIRECTION('',(0.707106781186547,0.,0.707106781186548));
#465=DIRECTION('',(0.,-1.,0.));
#466=DIRECTION('',(1.,0.,0.));
#467=DIRECTION('',(0.,-1.,0.));
#468=DIRECTION('',(0.,1.,0.));
#469=DIRECTION('',(0.,0.,1.));
#470=DIRECTION('',(0.,0.,1.));
#471=DIRECTION('',(0.,0.,1.));
#472=DIRECTION('',(1.,0.,0.));
#473=DIRECTION('',(0.,0.,1.));
#474=DIRECTION('',(1.,0.,0.));
#475=DIRECTION('',(-0.707106781186547,0.,0.707106781186548));
#476=DIRECTION('',(0.,-1.,0.));
#477=DIRECTION('',(0.,-1.,0.));
#478=DIRECTION('',(0.707106781186548,0.,0.707106781186547));
#479=DIRECTION('',(0.,1.,0.));
#480=DIRECTION('',(0.,0.,1.));
#481=DIRECTION('',(1.,0.,0.));
#482=DIRECTION('',(0.,0.,1.));
#483=DIRECTION('',(1.,0.,0.));
#484=DIRECTION('',(0.707106781186547,0.,0.707106781186548));
#485=DIRECTION('',(0.,-1.,0.));
#486=DIRECTION('',(0.,-1.,0.));
#487=DIRECTION('',(-0.707106781186548,0.,0.707106781186547));
#488=DIRECTION('',(0.,1.,0.));
#489=DIRECTION('',(0.,0.,1.));
#490=DIRECTION('',(1.,0.,0.));
#491=CARTESIAN_POINT('',(0.,0.,0.));
#492=CARTESIAN_POINT('',(-0.01545,-0.013425,0.0608));
#493=CARTESIAN_POINT('',(-0.01545,-0.0130904545375629,0.043));
#494=CARTESIAN_POINT('',(-0.01545,-0.0130904545375629,0.043));
#495=CARTESIAN_POINT('',(-0.01545,-0.0130904545375629,0.055));
#496=CARTESIAN_POINT('',(-0.01545,0.000610549264715918,0.055));
#497=CARTESIAN_POINT('',(-0.01545,1.84314369322536E-18,0.055));
#498=CARTESIAN_POINT('',(-0.01545,1.89207930468266E-18,0.0608));
#499=CARTESIAN_POINT('',(-0.01545,1.89207930468266E-18,0.0608));
#500=CARTESIAN_POINT('',(-0.01545,-0.013425,0.0608));
#501=CARTESIAN_POINT('',(-0.01545,-0.0169705627484771,0.0608));
#502=CARTESIAN_POINT('',(-0.01545,-0.0169705627484771,0.043));
#503=CARTESIAN_POINT('',(-0.01545,-0.0169705627484771,0.043));
#504=CARTESIAN_POINT('',(-0.01545,0.,0.043));
#505=CARTESIAN_POINT('',(0.,1.4236519040088E-18,0.043));
#506=CARTESIAN_POINT('',(0.01545,-0.0169705627484771,0.043));
#507=CARTESIAN_POINT('',(0.01545,-0.0169705627484771,0.0608));
#508=CARTESIAN_POINT('',(0.01545,-0.0169705627484771,0.043));
#509=CARTESIAN_POINT('',(0.,1.4236519040088E-18,0.043));
#510=CARTESIAN_POINT('',(0.,1.4236519040088E-18,0.0608));
#511=CARTESIAN_POINT('',(0.,1.4236519040088E-18,0.0766073593128807));
#512=CARTESIAN_POINT('',(-0.022813428063314,-0.0025,0.0537939312495668));
#513=CARTESIAN_POINT('',(-0.022813428063314,0.0025,0.0537939312495668));
#514=CARTESIAN_POINT('',(-0.022813428063314,0.0025,0.043));
#515=CARTESIAN_POINT('',(-0.022813428063314,0.0025,0.0580365719366861));
#516=CARTESIAN_POINT('',(0.,1.4236519040088E-18,0.08085));
#517=CARTESIAN_POINT('',(-0.022813428063314,-0.0025,0.0580365719366861));
#518=CARTESIAN_POINT('',(-0.022813428063314,-0.0025,0.043));
#519=CARTESIAN_POINT('',(0.022813428063314,0.0025,0.043));
#520=CARTESIAN_POINT('',(0.022813428063314,0.0025,0.0580365719366861));
#521=CARTESIAN_POINT('',(0.022813428063314,0.0025,0.0537939312495668));
#522=CARTESIAN_POINT('',(0.,1.4236519040088E-18,0.0766073593128807));
#523=CARTESIAN_POINT('',(0.022813428063314,-0.0025,0.0537939312495668));
#524=CARTESIAN_POINT('',(0.022813428063314,-0.0025,0.043));
#525=CARTESIAN_POINT('',(0.022813428063314,-0.0025,0.0580365719366861));
#526=CARTESIAN_POINT('',(0.,1.4236519040088E-18,0.08085));
#527=CARTESIAN_POINT('',(0.,0.000610549264715918,0.0608));
#528=CARTESIAN_POINT('',(-0.02005,0.000610549264715918,0.0608));
#529=CARTESIAN_POINT('',(-0.02005,0.0025,0.0608));
#530=CARTESIAN_POINT('',(-0.02005,-0.0025,0.0608));
#531=CARTESIAN_POINT('',(0.,0.0025,0.0608));
#532=CARTESIAN_POINT('',(-0.01705,0.0025,0.0608));
#533=CARTESIAN_POINT('',(-0.01705,0.000610549264715918,0.0608));
#534=CARTESIAN_POINT('',(-0.01705,-0.0025,0.0608));
#535=CARTESIAN_POINT('',(6.35917961314429E-19,-0.0025,0.0608));
#536=CARTESIAN_POINT('',(0.02005,0.000610549264715918,0.0608));
#537=CARTESIAN_POINT('',(0.02005,0.0025,0.0608));
#538=CARTESIAN_POINT('',(0.02005,-0.0025,0.0608));
#539=CARTESIAN_POINT('',(-6.35917961314429E-19,-0.0025,0.0608));
#540=CARTESIAN_POINT('',(0.01705,-0.0025,0.0608));
#541=CARTESIAN_POINT('',(0.01705,0.000610549264715918,0.0608));
#542=CARTESIAN_POINT('',(0.01705,0.0025,0.0608));
#543=CARTESIAN_POINT('',(0.,0.0025,0.0608));
#544=CARTESIAN_POINT('',(0.01545,-0.013425,0.0608));
#545=CARTESIAN_POINT('',(0.01545,1.89207930468266E-18,0.0608));
#546=CARTESIAN_POINT('',(0.,9.4603965234133E-19,0.0608));
#547=CARTESIAN_POINT('',(0.,0.,0.043));
#548=CARTESIAN_POINT('',(0.01545,0.,0.043));
#549=CARTESIAN_POINT('',(0.01545,-0.0130904545375629,0.043));
#550=CARTESIAN_POINT('',(-1.69622656060736E-18,6.93889390390723E-18,0.043));
#551=CARTESIAN_POINT('',(-0.0174893398282202,-0.0025,0.0612393398282202));
#552=CARTESIAN_POINT('',(-0.01855,-0.0025,0.0623));
#553=CARTESIAN_POINT('',(-0.0174893398282202,-0.0025,0.0612393398282202));
#554=CARTESIAN_POINT('',(-0.0164286796564404,-0.0025,0.0601786796564404));
#555=CARTESIAN_POINT('',(-0.0164286796564404,-0.0025,0.0601786796564404));
#556=CARTESIAN_POINT('',(-0.0178,0.0025,0.06155));
#557=CARTESIAN_POINT('',(-0.0164286796564404,0.0025,0.0601786796564404));
#558=CARTESIAN_POINT('',(-0.0164286796564404,0.0025,0.0601786796564404));
#559=CARTESIAN_POINT('',(-0.0174893398282202,0.0025,0.0612393398282202));
#560=CARTESIAN_POINT('',(-0.01855,0.0025,0.0623));
#561=CARTESIAN_POINT('',(-0.01855,-0.0025,0.0623));
#562=CARTESIAN_POINT('',(0.0174893398282202,-0.0025,0.0612393398282202));
#563=CARTESIAN_POINT('',(0.0164286796564404,-0.0025,0.0601786796564404));
#564=CARTESIAN_POINT('',(0.0164286796564404,-0.0025,0.0601786796564404));
#565=CARTESIAN_POINT('',(0.0174893398282202,-0.0025,0.0612393398282202));
#566=CARTESIAN_POINT('',(0.01855,-0.0025,0.0623));
#567=CARTESIAN_POINT('',(0.0178,0.0025,0.06155));
#568=CARTESIAN_POINT('',(0.01855,0.0025,0.0623));
#569=CARTESIAN_POINT('',(0.0174893398282202,0.0025,0.0612393398282202));
#570=CARTESIAN_POINT('',(0.0164286796564404,0.0025,0.0601786796564404));
#571=CARTESIAN_POINT('',(0.0164286796564404,0.0025,0.0601786796564404));
#572=CARTESIAN_POINT('',(0.01855,-0.0025,0.0623));
#573=CARTESIAN_POINT('',(0.01545,-0.013425,0.0608));
#574=CARTESIAN_POINT('',(0.01545,0.000610549264715918,0.055));
#575=CARTESIAN_POINT('',(0.01545,1.89207930468266E-18,0.055));
#576=CARTESIAN_POINT('',(0.01545,-0.0130904545375629,0.055));
#577=CARTESIAN_POINT('',(0.01545,-0.0130904545375629,0.043));
#578=CARTESIAN_POINT('',(0.01545,1.89207930468266E-18,0.0608));
#579=CARTESIAN_POINT('',(-1.69622656060736E-18,6.93889390390723E-18,0.043));
#580=CARTESIAN_POINT('',(-1.69622656060736E-18,6.93889390390723E-18,0.055));
#581=CARTESIAN_POINT('',(-0.0164286796564404,4.33680868994202E-19,0.0601786796564404));
#582=CARTESIAN_POINT('',(-0.0164286796564404,4.33680868994202E-19,0.0601786796564404));
#583=CARTESIAN_POINT('',(-0.0174893398282202,0.,0.0612393398282202));
#584=CARTESIAN_POINT('',(0.,9.4603965234133E-19,0.0608));
#585=CARTESIAN_POINT('',(0.,9.4603965234133E-19,0.055));
#586=CARTESIAN_POINT('',(0.0164286796564404,4.33680868994202E-19,0.0601786796564404));
#587=CARTESIAN_POINT('',(0.0164286796564404,4.33680868994202E-19,0.0601786796564404));
#588=CARTESIAN_POINT('',(0.0174893398282202,0.,0.0612393398282202));
#589=CARTESIAN_POINT('',(0.,0.000610549264715918,0.055));
#590=MECHANICAL_DESIGN_GEOMETRIC_PRESENTATION_REPRESENTATION('',(#355),
#591);
#591=(
GEOMETRIC_REPRESENTATION_CONTEXT(3)
GLOBAL_UNCERTAINTY_ASSIGNED_CONTEXT((#592))
GLOBAL_UNIT_ASSIGNED_CONTEXT((#595,#594,#593))
REPRESENTATION_CONTEXT('top','TOP_LEVEL_ASSEMBLY_PART')
);
#592=UNCERTAINTY_MEASURE_WITH_UNIT(LENGTH_MEASURE(1.E-8),#595,
'DISTANCE_ACCURACY_VALUE','Maximum Tolerance applied to model');
#593=(
NAMED_UNIT(*)
SI_UNIT($,.STERADIAN.)
SOLID_ANGLE_UNIT()
);
#594=(
NAMED_UNIT(*)
PLANE_ANGLE_UNIT()
SI_UNIT($,.RADIAN.)
);
#595=(
LENGTH_UNIT()
NAMED_UNIT(*)
SI_UNIT($,.METRE.)
);
#596=PRODUCT_DEFINITION_SHAPE('','',#597);
#597=PRODUCT_DEFINITION('','',#599,#598);
#598=PRODUCT_DEFINITION_CONTEXT('',#605,'design');
#599=PRODUCT_DEFINITION_FORMATION_WITH_SPECIFIED_SOURCE('','',#601,
 .NOT_KNOWN.);
#600=PRODUCT_RELATED_PRODUCT_CATEGORY('','',(#601));
#601=PRODUCT('top','top','top',(#603));
#602=PRODUCT_CATEGORY('','');
#603=PRODUCT_CONTEXT('',#605,'mechanical');
#604=APPLICATION_PROTOCOL_DEFINITION('international standard',
'ap242_managed_model_based_3d_engineering',2020,#605);
#605=APPLICATION_CONTEXT('managed model based 3d engineering');
ENDSEC;
END-ISO-10303-21;
