ISO-10303-21;
HEADER;
/* Generated by software containing ST-Developer
 * from STEP Tools, Inc. (www.steptools.com) 
 */
/* OPTION: using custom renumber hook */

FILE_DESCRIPTION(
/* description */ ('STEP AP242 Edition 2',
'CAx-IF Rec.Pracs.---Representation and Presentation of Product Manufa
cturing Information (PMI)---4.0---2014-10-13',
'CAx-IF Rec.Pracs.---3D Tessellated Geometry---0.4---2014-09-14','2;1',
'CAx-IF Rec.Pracs.---User Defined Attributes---1.5---2016-08-15'),
/* implementation_level */ '2;1');

FILE_NAME(
/* name */ 'Nous A1 - bottom',
/* time_stamp */ '2026-08-23T20:37:49Z',
/* author */ (''),
/* organization */ (''),
/* preprocessor_version */ 'ST-DEVELOPER v20',
/* originating_system */ 'ONSHAPE BY PTC INC, 1.219',
/* authorisation */ '  ');

FILE_SCHEMA (('AP242_MANAGED_MODEL_BASED_3D_ENGINEERING_MIM_LF { 1 0 10303 442 3 1 4 }'));
ENDSEC;

DATA;
#10=SHAPE_REPRESENTATION_RELATIONSHIP('','',#431,#11);
#11=ADVANCED_BREP_SHAPE_REPRESENTATION('',(#429),#773);
#12=TOROIDAL_SURFACE('',#474,0.02585,0.001);
#13=TOROIDAL_SURFACE('',#477,0.02585,0.001);
#14=(
BOUNDED_SURFACE()
B_SPLINE_SURFACE(3,2,((#724,#725,#726),(#727,#728,#729),(#730,#731,#732),
(#733,#734,#735)),.UNSPECIFIED.,.F.,.F.,.F.)
B_SPLINE_SURFACE_WITH_KNOTS((4,4),(3,3),(3.0435670979395,3.23961820924009),
(0.,1.),.PIECEWISE_BEZIER_KNOTS.)
GEOMETRIC_REPRESENTATION_ITEM()
RATIONAL_B_SPLINE_SURFACE(((1.,0.384894659099085,1.),(1.,0.381957180270139,
1.),(1.,0.381957180256576,1.),(1.,0.38489465909909,1.)))
REPRESENTATION_ITEM('')
SURFACE()
);
#15=(
BOUNDED_SURFACE()
B_SPLINE_SURFACE(3,2,((#736,#737,#738),(#739,#740,#741),(#742,#743,#744),
(#745,#746,#747)),.UNSPECIFIED.,.F.,.F.,.F.)
B_SPLINE_SURFACE_WITH_KNOTS((4,4),(3,3),(3.0435670979395,3.23961820924009),
(0.,1.),.PIECEWISE_BEZIER_KNOTS.)
GEOMETRIC_REPRESENTATION_ITEM()
RATIONAL_B_SPLINE_SURFACE(((1.,0.384894659099085,1.),(1.,0.381957180268537,
1.),(1.,0.381957180270139,1.),(1.,0.384894659099085,1.)))
REPRESENTATION_ITEM('')
SURFACE()
);
#16=B_SPLINE_CURVE_WITH_KNOTS('',3,(#666,#667,#668,#669,#670),
 .UNSPECIFIED.,.F.,.F.,(4,1,4),(0.,0.00117450909683676,0.00234901819367351),
 .UNSPECIFIED.);
#17=B_SPLINE_CURVE_WITH_KNOTS('',3,(#674,#675,#676,#677,#678),
 .UNSPECIFIED.,.F.,.F.,(4,1,4),(0.,0.00117431108717899,0.00234862217435798),
 .UNSPECIFIED.);
#18=B_SPLINE_CURVE_WITH_KNOTS('',3,(#685,#686,#687,#688,#689),
 .UNSPECIFIED.,.F.,.F.,(4,1,4),(0.,0.00117431108717899,0.00234862217435798),
 .UNSPECIFIED.);
#19=B_SPLINE_CURVE_WITH_KNOTS('',3,(#695,#696,#697,#698,#699),
 .UNSPECIFIED.,.F.,.F.,(4,1,4),(0.,0.00117450909683676,0.00234901819367351),
 .UNSPECIFIED.);
#20=B_SPLINE_CURVE_WITH_KNOTS('',3,(#749,#750,#751,#752,#753),
 .UNSPECIFIED.,.F.,.F.,(4,1,4),(0.,0.000959007214229561,0.00191801442845912),
 .UNSPECIFIED.);
#21=B_SPLINE_CURVE_WITH_KNOTS('',3,(#754,#755,#756,#757,#758),
 .UNSPECIFIED.,.F.,.F.,(4,1,4),(0.,0.000959007214229561,0.00191801442845912),
 .UNSPECIFIED.);
#22=B_SPLINE_CURVE_WITH_KNOTS('',3,(#760,#761,#762,#763,#764),
 .UNSPECIFIED.,.F.,.F.,(4,1,4),(0.,0.000959007214229552,0.0019180144284591),
 .UNSPECIFIED.);
#23=B_SPLINE_CURVE_WITH_KNOTS('',3,(#766,#767,#768,#769,#770),
 .UNSPECIFIED.,.F.,.F.,(4,1,4),(0.,0.000959007214229552,0.0019180144284591),
 .UNSPECIFIED.);
#24=PLANE('',#449);
#25=PLANE('',#453);
#26=PLANE('',#454);
#27=PLANE('',#456);
#28=PLANE('',#457);
#29=PLANE('',#458);
#30=PLANE('',#459);
#31=PLANE('',#460);
#32=PLANE('',#461);
#33=PLANE('',#463);
#34=PLANE('',#464);
#35=PLANE('',#468);
#36=PLANE('',#469);
#37=PLANE('',#470);
#38=ELLIPSE('',#437,0.0372712355577327,0.02685);
#39=ELLIPSE('',#438,0.0379716341497175,0.02685);
#40=ELLIPSE('',#439,0.0372712355577327,0.02685);
#41=ELLIPSE('',#440,0.0379716341497175,0.02685);
#42=ELLIPSE('',#445,0.0328804653251744,0.02325);
#43=ELLIPSE('',#446,0.0328804653251744,0.02325);
#44=ELLIPSE('',#447,0.0328804653251744,0.02325);
#45=ELLIPSE('',#448,0.0328804653251744,0.02325);
#46=ELLIPSE('',#455,0.0365574205873445,0.02585);
#47=ELLIPSE('',#462,0.0365574205873445,0.02585);
#48=CIRCLE('',#434,0.02685);
#49=CIRCLE('',#435,0.02685);
#50=CIRCLE('',#436,0.02685);
#51=CIRCLE('',#442,0.02325);
#52=CIRCLE('',#443,0.02325);
#53=CIRCLE('',#444,0.02325);
#54=CIRCLE('',#450,0.01875);
#55=CIRCLE('',#452,0.01875);
#56=CIRCLE('',#465,0.001);
#57=CIRCLE('',#466,0.02585);
#58=CIRCLE('',#467,0.001);
#59=CIRCLE('',#471,0.001);
#60=CIRCLE('',#472,0.02585);
#61=CIRCLE('',#473,0.001);
#62=ORIENTED_EDGE('',*,*,#178,.T.);
#63=ORIENTED_EDGE('',*,*,#179,.T.);
#64=ORIENTED_EDGE('',*,*,#180,.T.);
#65=ORIENTED_EDGE('',*,*,#181,.T.);
#66=ORIENTED_EDGE('',*,*,#182,.T.);
#67=ORIENTED_EDGE('',*,*,#183,.F.);
#68=ORIENTED_EDGE('',*,*,#184,.T.);
#69=ORIENTED_EDGE('',*,*,#185,.F.);
#70=ORIENTED_EDGE('',*,*,#186,.F.);
#71=ORIENTED_EDGE('',*,*,#187,.T.);
#72=ORIENTED_EDGE('',*,*,#188,.T.);
#73=ORIENTED_EDGE('',*,*,#189,.T.);
#74=ORIENTED_EDGE('',*,*,#190,.T.);
#75=ORIENTED_EDGE('',*,*,#191,.F.);
#76=ORIENTED_EDGE('',*,*,#192,.T.);
#77=ORIENTED_EDGE('',*,*,#193,.T.);
#78=ORIENTED_EDGE('',*,*,#194,.T.);
#79=ORIENTED_EDGE('',*,*,#195,.F.);
#80=ORIENTED_EDGE('',*,*,#196,.F.);
#81=ORIENTED_EDGE('',*,*,#197,.F.);
#82=ORIENTED_EDGE('',*,*,#198,.F.);
#83=ORIENTED_EDGE('',*,*,#199,.F.);
#84=ORIENTED_EDGE('',*,*,#200,.T.);
#85=ORIENTED_EDGE('',*,*,#201,.T.);
#86=ORIENTED_EDGE('',*,*,#202,.T.);
#87=ORIENTED_EDGE('',*,*,#203,.T.);
#88=ORIENTED_EDGE('',*,*,#195,.T.);
#89=ORIENTED_EDGE('',*,*,#204,.F.);
#90=ORIENTED_EDGE('',*,*,#204,.T.);
#91=ORIENTED_EDGE('',*,*,#205,.F.);
#92=ORIENTED_EDGE('',*,*,#182,.F.);
#93=ORIENTED_EDGE('',*,*,#205,.T.);
#94=ORIENTED_EDGE('',*,*,#206,.F.);
#95=ORIENTED_EDGE('',*,*,#207,.T.);
#96=ORIENTED_EDGE('',*,*,#208,.T.);
#97=ORIENTED_EDGE('',*,*,#203,.F.);
#98=ORIENTED_EDGE('',*,*,#202,.F.);
#99=ORIENTED_EDGE('',*,*,#209,.F.);
#100=ORIENTED_EDGE('',*,*,#188,.F.);
#101=ORIENTED_EDGE('',*,*,#210,.T.);
#102=ORIENTED_EDGE('',*,*,#206,.T.);
#103=ORIENTED_EDGE('',*,*,#201,.F.);
#104=ORIENTED_EDGE('',*,*,#211,.F.);
#105=ORIENTED_EDGE('',*,*,#189,.F.);
#106=ORIENTED_EDGE('',*,*,#209,.T.);
#107=ORIENTED_EDGE('',*,*,#200,.F.);
#108=ORIENTED_EDGE('',*,*,#208,.F.);
#109=ORIENTED_EDGE('',*,*,#212,.T.);
#110=ORIENTED_EDGE('',*,*,#190,.F.);
#111=ORIENTED_EDGE('',*,*,#211,.T.);
#112=ORIENTED_EDGE('',*,*,#199,.T.);
#113=ORIENTED_EDGE('',*,*,#213,.F.);
#114=ORIENTED_EDGE('',*,*,#186,.T.);
#115=ORIENTED_EDGE('',*,*,#214,.T.);
#116=ORIENTED_EDGE('',*,*,#198,.T.);
#117=ORIENTED_EDGE('',*,*,#215,.F.);
#118=ORIENTED_EDGE('',*,*,#216,.T.);
#119=ORIENTED_EDGE('',*,*,#183,.T.);
#120=ORIENTED_EDGE('',*,*,#213,.T.);
#121=ORIENTED_EDGE('',*,*,#217,.F.);
#122=ORIENTED_EDGE('',*,*,#218,.T.);
#123=ORIENTED_EDGE('',*,*,#215,.T.);
#124=ORIENTED_EDGE('',*,*,#197,.T.);
#125=ORIENTED_EDGE('',*,*,#196,.T.);
#126=ORIENTED_EDGE('',*,*,#214,.F.);
#127=ORIENTED_EDGE('',*,*,#185,.T.);
#128=ORIENTED_EDGE('',*,*,#219,.T.);
#129=ORIENTED_EDGE('',*,*,#217,.T.);
#130=ORIENTED_EDGE('',*,*,#220,.T.);
#131=ORIENTED_EDGE('',*,*,#221,.T.);
#132=ORIENTED_EDGE('',*,*,#222,.T.);
#133=ORIENTED_EDGE('',*,*,#223,.T.);
#134=ORIENTED_EDGE('',*,*,#224,.F.);
#135=ORIENTED_EDGE('',*,*,#194,.F.);
#136=ORIENTED_EDGE('',*,*,#224,.T.);
#137=ORIENTED_EDGE('',*,*,#225,.T.);
#138=ORIENTED_EDGE('',*,*,#226,.F.);
#139=ORIENTED_EDGE('',*,*,#191,.T.);
#140=ORIENTED_EDGE('',*,*,#227,.T.);
#141=ORIENTED_EDGE('',*,*,#228,.T.);
#142=ORIENTED_EDGE('',*,*,#220,.F.);
#143=ORIENTED_EDGE('',*,*,#193,.F.);
#144=ORIENTED_EDGE('',*,*,#226,.T.);
#145=ORIENTED_EDGE('',*,*,#229,.T.);
#146=ORIENTED_EDGE('',*,*,#230,.T.);
#147=ORIENTED_EDGE('',*,*,#231,.T.);
#148=ORIENTED_EDGE('',*,*,#227,.F.);
#149=ORIENTED_EDGE('',*,*,#192,.F.);
#150=ORIENTED_EDGE('',*,*,#219,.F.);
#151=ORIENTED_EDGE('',*,*,#184,.F.);
#152=ORIENTED_EDGE('',*,*,#216,.F.);
#153=ORIENTED_EDGE('',*,*,#218,.F.);
#154=ORIENTED_EDGE('',*,*,#212,.F.);
#155=ORIENTED_EDGE('',*,*,#207,.F.);
#156=ORIENTED_EDGE('',*,*,#210,.F.);
#157=ORIENTED_EDGE('',*,*,#187,.F.);
#158=ORIENTED_EDGE('',*,*,#232,.F.);
#159=ORIENTED_EDGE('',*,*,#222,.F.);
#160=ORIENTED_EDGE('',*,*,#233,.F.);
#161=ORIENTED_EDGE('',*,*,#181,.F.);
#162=ORIENTED_EDGE('',*,*,#228,.F.);
#163=ORIENTED_EDGE('',*,*,#231,.F.);
#164=ORIENTED_EDGE('',*,*,#234,.F.);
#165=ORIENTED_EDGE('',*,*,#178,.F.);
#166=ORIENTED_EDGE('',*,*,#233,.T.);
#167=ORIENTED_EDGE('',*,*,#221,.F.);
#168=ORIENTED_EDGE('',*,*,#232,.T.);
#169=ORIENTED_EDGE('',*,*,#180,.F.);
#170=ORIENTED_EDGE('',*,*,#235,.F.);
#171=ORIENTED_EDGE('',*,*,#229,.F.);
#172=ORIENTED_EDGE('',*,*,#225,.F.);
#173=ORIENTED_EDGE('',*,*,#223,.F.);
#174=ORIENTED_EDGE('',*,*,#234,.T.);
#175=ORIENTED_EDGE('',*,*,#230,.F.);
#176=ORIENTED_EDGE('',*,*,#235,.T.);
#177=ORIENTED_EDGE('',*,*,#179,.F.);
#178=EDGE_CURVE('',#236,#237,#276,.F.);
#179=EDGE_CURVE('',#237,#238,#48,.F.);
#180=EDGE_CURVE('',#238,#239,#277,.T.);
#181=EDGE_CURVE('',#239,#236,#49,.F.);
#182=EDGE_CURVE('',#240,#240,#50,.T.);
#183=EDGE_CURVE('',#241,#242,#278,.F.);
#184=EDGE_CURVE('',#241,#243,#38,.F.);
#185=EDGE_CURVE('',#244,#243,#279,.T.);
#186=EDGE_CURVE('',#242,#244,#39,.T.);
#187=EDGE_CURVE('',#245,#246,#40,.F.);
#188=EDGE_CURVE('',#246,#247,#280,.F.);
#189=EDGE_CURVE('',#247,#248,#41,.T.);
#190=EDGE_CURVE('',#248,#245,#281,.T.);
#191=EDGE_CURVE('',#249,#250,#282,.T.);
#192=EDGE_CURVE('',#249,#251,#51,.T.);
#193=EDGE_CURVE('',#251,#252,#283,.T.);
#194=EDGE_CURVE('',#252,#250,#52,.T.);
#195=EDGE_CURVE('',#253,#253,#53,.T.);
#196=EDGE_CURVE('',#254,#255,#284,.F.);
#197=EDGE_CURVE('',#256,#254,#42,.T.);
#198=EDGE_CURVE('',#257,#256,#285,.T.);
#199=EDGE_CURVE('',#255,#257,#43,.F.);
#200=EDGE_CURVE('',#258,#259,#286,.F.);
#201=EDGE_CURVE('',#259,#260,#44,.F.);
#202=EDGE_CURVE('',#260,#261,#287,.T.);
#203=EDGE_CURVE('',#261,#258,#45,.T.);
#204=EDGE_CURVE('',#262,#262,#54,.T.);
#205=EDGE_CURVE('',#263,#263,#55,.T.);
#206=EDGE_CURVE('',#264,#261,#288,.T.);
#207=EDGE_CURVE('',#264,#265,#46,.F.);
#208=EDGE_CURVE('',#265,#258,#289,.T.);
#209=EDGE_CURVE('',#247,#260,#290,.T.);
#210=EDGE_CURVE('',#246,#264,#16,.T.);
#211=EDGE_CURVE('',#248,#259,#291,.T.);
#212=EDGE_CURVE('',#265,#245,#17,.T.);
#213=EDGE_CURVE('',#242,#257,#292,.T.);
#214=EDGE_CURVE('',#244,#255,#293,.T.);
#215=EDGE_CURVE('',#266,#256,#294,.T.);
#216=EDGE_CURVE('',#266,#241,#18,.T.);
#217=EDGE_CURVE('',#267,#254,#295,.T.);
#218=EDGE_CURVE('',#267,#266,#47,.F.);
#219=EDGE_CURVE('',#243,#267,#19,.T.);
#220=EDGE_CURVE('',#252,#268,#296,.T.);
#221=EDGE_CURVE('',#268,#269,#56,.T.);
#222=EDGE_CURVE('',#269,#270,#57,.T.);
#223=EDGE_CURVE('',#270,#271,#58,.T.);
#224=EDGE_CURVE('',#250,#271,#297,.T.);
#225=EDGE_CURVE('',#271,#272,#298,.T.);
#226=EDGE_CURVE('',#249,#272,#299,.F.);
#227=EDGE_CURVE('',#251,#273,#300,.F.);
#228=EDGE_CURVE('',#273,#268,#301,.F.);
#229=EDGE_CURVE('',#272,#274,#59,.F.);
#230=EDGE_CURVE('',#274,#275,#60,.T.);
#231=EDGE_CURVE('',#275,#273,#61,.F.);
#232=EDGE_CURVE('',#270,#239,#20,.T.);
#233=EDGE_CURVE('',#236,#269,#21,.F.);
#234=EDGE_CURVE('',#237,#275,#22,.F.);
#235=EDGE_CURVE('',#274,#238,#23,.T.);
#236=VERTEX_POINT('',#599);
#237=VERTEX_POINT('',#600);
#238=VERTEX_POINT('',#602);
#239=VERTEX_POINT('',#604);
#240=VERTEX_POINT('',#607);
#241=VERTEX_POINT('',#609);
#242=VERTEX_POINT('',#610);
#243=VERTEX_POINT('',#612);
#244=VERTEX_POINT('',#614);
#245=VERTEX_POINT('',#617);
#246=VERTEX_POINT('',#618);
#247=VERTEX_POINT('',#620);
#248=VERTEX_POINT('',#622);
#249=VERTEX_POINT('',#626);
#250=VERTEX_POINT('',#627);
#251=VERTEX_POINT('',#629);
#252=VERTEX_POINT('',#631);
#253=VERTEX_POINT('',#634);
#254=VERTEX_POINT('',#636);
#255=VERTEX_POINT('',#637);
#256=VERTEX_POINT('',#639);
#257=VERTEX_POINT('',#641);
#258=VERTEX_POINT('',#644);
#259=VERTEX_POINT('',#645);
#260=VERTEX_POINT('',#647);
#261=VERTEX_POINT('',#649);
#262=VERTEX_POINT('',#653);
#263=VERTEX_POINT('',#656);
#264=VERTEX_POINT('',#660);
#265=VERTEX_POINT('',#662);
#266=VERTEX_POINT('',#684);
#267=VERTEX_POINT('',#692);
#268=VERTEX_POINT('',#702);
#269=VERTEX_POINT('',#704);
#270=VERTEX_POINT('',#706);
#271=VERTEX_POINT('',#708);
#272=VERTEX_POINT('',#712);
#273=VERTEX_POINT('',#716);
#274=VERTEX_POINT('',#720);
#275=VERTEX_POINT('',#722);
#276=LINE('',#598,#302);
#277=LINE('',#603,#303);
#278=LINE('',#608,#304);
#279=LINE('',#613,#305);
#280=LINE('',#619,#306);
#281=LINE('',#623,#307);
#282=LINE('',#625,#308);
#283=LINE('',#630,#309);
#284=LINE('',#635,#310);
#285=LINE('',#640,#311);
#286=LINE('',#643,#312);
#287=LINE('',#648,#313);
#288=LINE('',#659,#314);
#289=LINE('',#663,#315);
#290=LINE('',#665,#316);
#291=LINE('',#672,#317);
#292=LINE('',#680,#318);
#293=LINE('',#681,#319);
#294=LINE('',#683,#320);
#295=LINE('',#691,#321);
#296=LINE('',#701,#322);
#297=LINE('',#709,#323);
#298=LINE('',#711,#324);
#299=LINE('',#713,#325);
#300=LINE('',#715,#326);
#301=LINE('',#717,#327);
#302=VECTOR('',#482,1.);
#303=VECTOR('',#485,1.);
#304=VECTOR('',#490,1.);
#305=VECTOR('',#493,1.);
#306=VECTOR('',#498,1.);
#307=VECTOR('',#501,1.);
#308=VECTOR('',#504,1.);
#309=VECTOR('',#507,1.);
#310=VECTOR('',#512,1.);
#311=VECTOR('',#515,1.);
#312=VECTOR('',#518,1.);
#313=VECTOR('',#521,1.);
#314=VECTOR('',#536,1.);
#315=VECTOR('',#539,1.);
#316=VECTOR('',#542,1.);
#317=VECTOR('',#545,1.);
#318=VECTOR('',#550,1.);
#319=VECTOR('',#551,1.);
#320=VECTOR('',#554,1.);
#321=VECTOR('',#557,1.);
#322=VECTOR('',#564,1.);
#323=VECTOR('',#571,1.);
#324=VECTOR('',#574,1.);
#325=VECTOR('',#575,1.);
#326=VECTOR('',#578,1.);
#327=VECTOR('',#579,1.);
#328=EDGE_LOOP('',(#62,#63,#64,#65));
#329=EDGE_LOOP('',(#66));
#330=EDGE_LOOP('',(#67,#68,#69,#70));
#331=EDGE_LOOP('',(#71,#72,#73,#74));
#332=EDGE_LOOP('',(#75,#76,#77,#78));
#333=EDGE_LOOP('',(#79));
#334=EDGE_LOOP('',(#80,#81,#82,#83));
#335=EDGE_LOOP('',(#84,#85,#86,#87));
#336=EDGE_LOOP('',(#88));
#337=EDGE_LOOP('',(#89));
#338=EDGE_LOOP('',(#90));
#339=EDGE_LOOP('',(#91));
#340=EDGE_LOOP('',(#92));
#341=EDGE_LOOP('',(#93));
#342=EDGE_LOOP('',(#94,#95,#96,#97));
#343=EDGE_LOOP('',(#98,#99,#100,#101,#102));
#344=EDGE_LOOP('',(#103,#104,#105,#106));
#345=EDGE_LOOP('',(#107,#108,#109,#110,#111));
#346=EDGE_LOOP('',(#112,#113,#114,#115));
#347=EDGE_LOOP('',(#116,#117,#118,#119,#120));
#348=EDGE_LOOP('',(#121,#122,#123,#124));
#349=EDGE_LOOP('',(#125,#126,#127,#128,#129));
#350=EDGE_LOOP('',(#130,#131,#132,#133,#134,#135));
#351=EDGE_LOOP('',(#136,#137,#138,#139));
#352=EDGE_LOOP('',(#140,#141,#142,#143));
#353=EDGE_LOOP('',(#144,#145,#146,#147,#148,#149));
#354=EDGE_LOOP('',(#150,#151,#152,#153));
#355=EDGE_LOOP('',(#154,#155,#156,#157));
#356=EDGE_LOOP('',(#158,#159,#160,#161));
#357=EDGE_LOOP('',(#162,#163,#164,#165,#166,#167));
#358=EDGE_LOOP('',(#168,#169,#170,#171,#172,#173));
#359=EDGE_LOOP('',(#174,#175,#176,#177));
#360=FACE_BOUND('',#328,.T.);
#361=FACE_BOUND('',#329,.T.);
#362=FACE_BOUND('',#330,.T.);
#363=FACE_BOUND('',#331,.T.);
#364=FACE_BOUND('',#332,.T.);
#365=FACE_BOUND('',#333,.T.);
#366=FACE_BOUND('',#334,.T.);
#367=FACE_BOUND('',#335,.T.);
#368=FACE_BOUND('',#336,.T.);
#369=FACE_BOUND('',#337,.T.);
#370=FACE_BOUND('',#338,.T.);
#371=FACE_BOUND('',#339,.T.);
#372=FACE_BOUND('',#340,.T.);
#373=FACE_BOUND('',#341,.T.);
#374=FACE_BOUND('',#342,.T.);
#375=FACE_BOUND('',#343,.T.);
#376=FACE_BOUND('',#344,.T.);
#377=FACE_BOUND('',#345,.T.);
#378=FACE_BOUND('',#346,.T.);
#379=FACE_BOUND('',#347,.T.);
#380=FACE_BOUND('',#348,.T.);
#381=FACE_BOUND('',#349,.T.);
#382=FACE_BOUND('',#350,.T.);
#383=FACE_BOUND('',#351,.T.);
#384=FACE_BOUND('',#352,.T.);
#385=FACE_BOUND('',#353,.T.);
#386=FACE_BOUND('',#354,.T.);
#387=FACE_BOUND('',#355,.T.);
#388=FACE_BOUND('',#356,.T.);
#389=FACE_BOUND('',#357,.T.);
#390=FACE_BOUND('',#358,.T.);
#391=FACE_BOUND('',#359,.T.);
#392=CYLINDRICAL_SURFACE('',#433,0.02685);
#393=CYLINDRICAL_SURFACE('',#441,0.02325);
#394=CYLINDRICAL_SURFACE('',#451,0.01875);
#395=CYLINDRICAL_SURFACE('',#475,0.001);
#396=CYLINDRICAL_SURFACE('',#476,0.001);
#397=ADVANCED_FACE('',(#360,#361,#362,#363),#392,.T.);
#398=ADVANCED_FACE('',(#364,#365,#366,#367),#393,.F.);
#399=ADVANCED_FACE('',(#368,#369),#24,.T.);
#400=ADVANCED_FACE('',(#370,#371),#394,.F.);
#401=ADVANCED_FACE('',(#372,#373),#25,.F.);
#402=ADVANCED_FACE('',(#374),#26,.F.);
#403=ADVANCED_FACE('',(#375),#27,.F.);
#404=ADVANCED_FACE('',(#376),#28,.T.);
#405=ADVANCED_FACE('',(#377),#29,.T.);
#406=ADVANCED_FACE('',(#378),#30,.T.);
#407=ADVANCED_FACE('',(#379),#31,.F.);
#408=ADVANCED_FACE('',(#380),#32,.F.);
#409=ADVANCED_FACE('',(#381),#33,.T.);
#410=ADVANCED_FACE('',(#382),#34,.T.);
#411=ADVANCED_FACE('',(#383),#35,.F.);
#412=ADVANCED_FACE('',(#384),#36,.F.);
#413=ADVANCED_FACE('',(#385),#37,.T.);
#414=ADVANCED_FACE('',(#386),#14,.T.);
#415=ADVANCED_FACE('',(#387),#15,.T.);
#416=ADVANCED_FACE('',(#388),#12,.T.);
#417=ADVANCED_FACE('',(#389),#395,.T.);
#418=ADVANCED_FACE('',(#390),#396,.T.);
#419=ADVANCED_FACE('',(#391),#13,.T.);
#420=CLOSED_SHELL('',(#397,#398,#399,#400,#401,#402,#403,#404,#405,#406,
#407,#408,#409,#410,#411,#412,#413,#414,#415,#416,#417,#418,#419));
#421=STYLED_ITEM('',(#422),#429);
#422=PRESENTATION_STYLE_ASSIGNMENT((#423));
#423=SURFACE_STYLE_USAGE(.BOTH.,#424);
#424=SURFACE_SIDE_STYLE('',(#425));
#425=SURFACE_STYLE_FILL_AREA(#426);
#426=FILL_AREA_STYLE('',(#427));
#427=FILL_AREA_STYLE_COLOUR('',#428);
#428=COLOUR_RGB('',0.615686274509804,0.811764705882353,0.929411764705882);
#429=MANIFOLD_SOLID_BREP('bottom',#420);
#430=SHAPE_DEFINITION_REPRESENTATION(#778,#431);
#431=SHAPE_REPRESENTATION('bottom',(#432),#773);
#432=AXIS2_PLACEMENT_3D('',#596,#478,#479);
#433=AXIS2_PLACEMENT_3D('',#597,#480,#481);
#434=AXIS2_PLACEMENT_3D('',#601,#483,#484);
#435=AXIS2_PLACEMENT_3D('',#605,#486,#487);
#436=AXIS2_PLACEMENT_3D('',#606,#488,#489);
#437=AXIS2_PLACEMENT_3D('',#611,#491,#492);
#438=AXIS2_PLACEMENT_3D('',#615,#494,#495);
#439=AXIS2_PLACEMENT_3D('',#616,#496,#497);
#440=AXIS2_PLACEMENT_3D('',#621,#499,#500);
#441=AXIS2_PLACEMENT_3D('',#624,#502,#503);
#442=AXIS2_PLACEMENT_3D('',#628,#505,#506);
#443=AXIS2_PLACEMENT_3D('',#632,#508,#509);
#444=AXIS2_PLACEMENT_3D('',#633,#510,#511);
#445=AXIS2_PLACEMENT_3D('',#638,#513,#514);
#446=AXIS2_PLACEMENT_3D('',#642,#516,#517);
#447=AXIS2_PLACEMENT_3D('',#646,#519,#520);
#448=AXIS2_PLACEMENT_3D('',#650,#522,#523);
#449=AXIS2_PLACEMENT_3D('',#651,#524,#525);
#450=AXIS2_PLACEMENT_3D('',#652,#526,#527);
#451=AXIS2_PLACEMENT_3D('',#654,#528,#529);
#452=AXIS2_PLACEMENT_3D('',#655,#530,#531);
#453=AXIS2_PLACEMENT_3D('',#657,#532,#533);
#454=AXIS2_PLACEMENT_3D('',#658,#534,#535);
#455=AXIS2_PLACEMENT_3D('',#661,#537,#538);
#456=AXIS2_PLACEMENT_3D('',#664,#540,#541);
#457=AXIS2_PLACEMENT_3D('',#671,#543,#544);
#458=AXIS2_PLACEMENT_3D('',#673,#546,#547);
#459=AXIS2_PLACEMENT_3D('',#679,#548,#549);
#460=AXIS2_PLACEMENT_3D('',#682,#552,#553);
#461=AXIS2_PLACEMENT_3D('',#690,#555,#556);
#462=AXIS2_PLACEMENT_3D('',#693,#558,#559);
#463=AXIS2_PLACEMENT_3D('',#694,#560,#561);
#464=AXIS2_PLACEMENT_3D('',#700,#562,#563);
#465=AXIS2_PLACEMENT_3D('',#703,#565,#566);
#466=AXIS2_PLACEMENT_3D('',#705,#567,#568);
#467=AXIS2_PLACEMENT_3D('',#707,#569,#570);
#468=AXIS2_PLACEMENT_3D('',#710,#572,#573);
#469=AXIS2_PLACEMENT_3D('',#714,#576,#577);
#470=AXIS2_PLACEMENT_3D('',#718,#580,#581);
#471=AXIS2_PLACEMENT_3D('',#719,#582,#583);
#472=AXIS2_PLACEMENT_3D('',#721,#584,#585);
#473=AXIS2_PLACEMENT_3D('',#723,#586,#587);
#474=AXIS2_PLACEMENT_3D('',#748,#588,#589);
#475=AXIS2_PLACEMENT_3D('',#759,#590,#591);
#476=AXIS2_PLACEMENT_3D('',#765,#592,#593);
#477=AXIS2_PLACEMENT_3D('',#771,#594,#595);
#478=DIRECTION('',(0.,0.,1.));
#479=DIRECTION('',(1.,0.,0.));
#480=DIRECTION('',(0.,0.,1.));
#481=DIRECTION('',(1.,0.,0.));
#482=DIRECTION('',(0.,0.,1.));
#483=DIRECTION('',(0.,0.,1.));
#484=DIRECTION('',(1.,0.,0.));
#485=DIRECTION('',(0.,0.,1.));
#486=DIRECTION('',(0.,0.,1.));
#487=DIRECTION('',(1.,0.,0.));
#488=DIRECTION('',(0.,0.,1.));
#489=DIRECTION('',(1.,0.,0.));
#490=DIRECTION('',(0.,0.,1.));
#491=DIRECTION('',(0.693564342935683,0.,-0.720394685022172));
#492=DIRECTION('',(0.720394685022172,0.,0.693564342935683));
#493=DIRECTION('',(0.,0.,1.));
#494=DIRECTION('',(-0.707106781186547,0.,0.707106781186548));
#495=DIRECTION('',(0.707106781186548,0.,0.707106781186547));
#496=DIRECTION('',(-0.693564342935683,0.,-0.720394685022172));
#497=DIRECTION('',(-0.720394685022172,0.,0.693564342935683));
#498=DIRECTION('',(0.,0.,1.));
#499=DIRECTION('',(-0.707106781186547,0.,-0.707106781186548));
#500=DIRECTION('',(-0.707106781186548,0.,0.707106781186547));
#501=DIRECTION('',(0.,0.,1.));
#502=DIRECTION('',(0.,0.,1.));
#503=DIRECTION('',(1.,0.,0.));
#504=DIRECTION('',(0.,0.,1.));
#505=DIRECTION('',(0.,0.,1.));
#506=DIRECTION('',(1.,0.,0.));
#507=DIRECTION('',(0.,0.,1.));
#508=DIRECTION('',(0.,0.,1.));
#509=DIRECTION('',(1.,0.,0.));
#510=DIRECTION('',(0.,0.,1.));
#511=DIRECTION('',(1.,0.,0.));
#512=DIRECTION('',(0.,0.,1.));
#513=DIRECTION('',(-0.707106781186547,0.,0.707106781186548));
#514=DIRECTION('',(0.707106781186548,0.,0.707106781186547));
#515=DIRECTION('',(0.,0.,1.));
#516=DIRECTION('',(-0.707106781186547,0.,0.707106781186548));
#517=DIRECTION('',(0.707106781186548,0.,0.707106781186547));
#518=DIRECTION('',(0.,0.,1.));
#519=DIRECTION('',(-0.707106781186547,0.,-0.707106781186548));
#520=DIRECTION('',(-0.707106781186548,0.,0.707106781186547));
#521=DIRECTION('',(0.,0.,1.));
#522=DIRECTION('',(-0.707106781186547,0.,-0.707106781186548));
#523=DIRECTION('',(-0.707106781186548,0.,0.707106781186547));
#524=DIRECTION('',(0.,0.,1.));
#525=DIRECTION('',(1.,0.,0.));
#526=DIRECTION('',(0.,0.,1.));
#527=DIRECTION('',(1.,0.,0.));
#528=DIRECTION('',(0.,0.,1.));
#529=DIRECTION('',(1.,0.,0.));
#530=DIRECTION('',(0.,0.,1.));
#531=DIRECTION('',(1.,0.,0.));
#532=DIRECTION('',(0.,0.,1.));
#533=DIRECTION('',(1.,0.,0.));
#534=DIRECTION('',(0.707106781186547,0.,0.707106781186548));
#535=DIRECTION('',(0.,-1.,0.));
#536=DIRECTION('',(-0.707106781186548,0.,0.707106781186547));
#537=DIRECTION('',(0.707106781186547,0.,0.707106781186548));
#538=DIRECTION('',(-0.707106781186548,0.,0.707106781186547));
#539=DIRECTION('',(-0.707106781186548,0.,0.707106781186547));
#540=DIRECTION('',(0.,1.,0.));
#541=DIRECTION('',(0.707106781186547,0.,0.707106781186548));
#542=DIRECTION('',(-0.707106781186548,0.,0.707106781186547));
#543=DIRECTION('',(0.707106781186547,0.,0.707106781186548));
#544=DIRECTION('',(0.,-1.,0.));
#545=DIRECTION('',(-0.707106781186548,0.,0.707106781186547));
#546=DIRECTION('',(2.04439122224449E-16,1.,2.0443912222445E-16));
#547=DIRECTION('',(0.707106781186547,-2.89120579329468E-16,0.707106781186549));
#548=DIRECTION('',(-0.707106781186547,0.,0.707106781186548));
#549=DIRECTION('',(0.,-1.,0.));
#550=DIRECTION('',(0.707106781186548,0.,0.707106781186547));
#551=DIRECTION('',(0.707106781186548,0.,0.707106781186547));
#552=DIRECTION('',(0.,1.,0.));
#553=DIRECTION('',(-0.707106781186547,0.,0.707106781186548));
#554=DIRECTION('',(0.707106781186548,0.,0.707106781186547));
#555=DIRECTION('',(-0.707106781186547,0.,0.707106781186548));
#556=DIRECTION('',(0.,-1.,0.));
#557=DIRECTION('',(0.707106781186548,0.,0.707106781186547));
#558=DIRECTION('',(-0.707106781186547,0.,0.707106781186548));
#559=DIRECTION('',(0.707106781186548,0.,0.707106781186547));
#560=DIRECTION('',(-2.04439122224449E-16,1.,2.0443912222445E-16));
#561=DIRECTION('',(-0.707106781186547,-2.89120579329468E-16,0.707106781186549));
#562=DIRECTION('',(0.,0.,1.));
#563=DIRECTION('',(1.,0.,0.));
#564=DIRECTION('',(0.,-1.,0.));
#565=DIRECTION('',(0.,0.,1.));
#566=DIRECTION('',(1.,0.,0.));
#567=DIRECTION('',(0.,0.,1.));
#568=DIRECTION('',(1.,0.,0.));
#569=DIRECTION('',(0.,0.,1.));
#570=DIRECTION('',(1.,0.,0.));
#571=DIRECTION('',(0.,-1.,0.));
#572=DIRECTION('',(-1.,0.,0.));
#573=DIRECTION('',(0.,-1.,0.));
#574=DIRECTION('',(0.,0.,-1.));
#575=DIRECTION('',(0.,1.,0.));
#576=DIRECTION('',(1.,0.,0.));
#577=DIRECTION('',(0.,-1.,0.));
#578=DIRECTION('',(0.,1.,0.));
#579=DIRECTION('',(0.,0.,-1.));
#580=DIRECTION('',(0.,0.,1.));
#581=DIRECTION('',(1.,0.,0.));
#582=DIRECTION('',(0.,0.,1.));
#583=DIRECTION('',(1.,0.,0.));
#584=DIRECTION('',(0.,0.,1.));
#585=DIRECTION('',(1.,0.,0.));
#586=DIRECTION('',(0.,0.,1.));
#587=DIRECTION('',(1.,0.,0.));
#588=DIRECTION('',(0.,0.,1.));
#589=DIRECTION('',(1.,0.,0.));
#590=DIRECTION('',(0.,0.,1.));
#591=DIRECTION('',(1.,0.,0.));
#592=DIRECTION('',(0.,0.,1.));
#593=DIRECTION('',(1.,0.,0.));
#594=DIRECTION('',(0.,0.,1.));
#595=DIRECTION('',(1.,0.,0.));
#596=CARTESIAN_POINT('',(0.,0.,0.));
#597=CARTESIAN_POINT('',(0.,1.52162364794058E-18,0.));
#598=CARTESIAN_POINT('',(0.0170863636363636,-0.0207118004453005,0.));
#599=CARTESIAN_POINT('',(0.0170863636363636,-0.0207118004453005,0.0598));
#600=CARTESIAN_POINT('',(0.0170863636363636,-0.0207118004453005,0.0366));
#601=CARTESIAN_POINT('',(0.,1.52162364794058E-18,0.0366));
#602=CARTESIAN_POINT('',(-0.0170863636363636,-0.0207118004453005,0.0366));
#603=CARTESIAN_POINT('',(-0.0170863636363636,-0.0207118004453005,0.));
#604=CARTESIAN_POINT('',(-0.0170863636363636,-0.0207118004453005,0.0598));
#605=CARTESIAN_POINT('',(0.,1.52162364794058E-18,0.0598));
#606=CARTESIAN_POINT('',(0.,1.52162364794058E-18,-0.0008));
#607=CARTESIAN_POINT('',(0.02685,1.52162364794058E-18,-0.0008));
#608=CARTESIAN_POINT('',(-0.0267333593100455,0.0025,0.01));
#609=CARTESIAN_POINT('',(-0.0267333593100455,0.0025,0.0565265100925527));
#610=CARTESIAN_POINT('',(-0.0267333593100455,0.0025,0.0498740000028352));
#611=CARTESIAN_POINT('',(0.,1.52162364794058E-18,0.082264213562373));
#612=CARTESIAN_POINT('',(-0.0267333593100455,-0.0025,0.0565265100925527));
#613=CARTESIAN_POINT('',(-0.0267333593100455,-0.0025,0.01));
#614=CARTESIAN_POINT('',(-0.0267333593100455,-0.0025,0.0498740000028352));
#615=CARTESIAN_POINT('',(0.,1.52162364794058E-18,0.0766073593128807));
#616=CARTESIAN_POINT('',(0.,1.52162364794058E-18,0.082264213562373));
#617=CARTESIAN_POINT('',(0.0267333593100455,-0.0025,0.0565265100925527));
#618=CARTESIAN_POINT('',(0.0267333593100455,0.0025,0.0565265100925527));
#619=CARTESIAN_POINT('',(0.0267333593100455,0.0025,0.01));
#620=CARTESIAN_POINT('',(0.0267333593100455,0.0025,0.0498740000028352));
#621=CARTESIAN_POINT('',(0.,1.52162364794058E-18,0.0766073593128807));
#622=CARTESIAN_POINT('',(0.0267333593100455,-0.0025,0.0498740000028352));
#623=CARTESIAN_POINT('',(0.0267333593100455,-0.0025,0.01));
#624=CARTESIAN_POINT('',(0.,1.4236519040088E-18,0.));
#625=CARTESIAN_POINT('',(-0.01545,-0.0173741186826843,0.01));
#626=CARTESIAN_POINT('',(-0.01545,-0.0173741186826843,0.0376));
#627=CARTESIAN_POINT('',(-0.01545,-0.0173741186826843,0.0608));
#628=CARTESIAN_POINT('',(0.,1.4236519040088E-18,0.0376));
#629=CARTESIAN_POINT('',(0.01545,-0.0173741186826843,0.0376));
#630=CARTESIAN_POINT('',(0.01545,-0.0173741186826843,0.01));
#631=CARTESIAN_POINT('',(0.01545,-0.0173741186826843,0.0608));
#632=CARTESIAN_POINT('',(0.,1.4236519040088E-18,0.0608));
#633=CARTESIAN_POINT('',(0.,1.4236519040088E-18,0.));
#634=CARTESIAN_POINT('',(0.02325,1.4236519040088E-18,0.));
#635=CARTESIAN_POINT('',(-0.0231152006264277,-0.0025,0.01));
#636=CARTESIAN_POINT('',(-0.0231152006264277,-0.0025,0.0577347993735724));
#637=CARTESIAN_POINT('',(-0.0231152006264277,-0.0025,0.0534921586864531));
#638=CARTESIAN_POINT('',(0.,1.4236519040088E-18,0.08085));
#639=CARTESIAN_POINT('',(-0.0231152006264277,0.0025,0.0577347993735724));
#640=CARTESIAN_POINT('',(-0.0231152006264277,0.0025,0.01));
#641=CARTESIAN_POINT('',(-0.0231152006264277,0.0025,0.0534921586864531));
#642=CARTESIAN_POINT('',(0.,1.4236519040088E-18,0.0766073593128807));
#643=CARTESIAN_POINT('',(0.0231152006264277,-0.0025,0.01));
#644=CARTESIAN_POINT('',(0.0231152006264277,-0.0025,0.0577347993735724));
#645=CARTESIAN_POINT('',(0.0231152006264277,-0.0025,0.0534921586864531));
#646=CARTESIAN_POINT('',(0.,1.4236519040088E-18,0.0766073593128807));
#647=CARTESIAN_POINT('',(0.0231152006264277,0.0025,0.0534921586864531));
#648=CARTESIAN_POINT('',(0.0231152006264277,0.0025,0.01));
#649=CARTESIAN_POINT('',(0.0231152006264277,0.0025,0.0577347993735724));
#650=CARTESIAN_POINT('',(0.,1.4236519040088E-18,0.08085));
#651=CARTESIAN_POINT('',(0.,0.,0.));
#652=CARTESIAN_POINT('',(0.,1.14810637420064E-18,0.));
#653=CARTESIAN_POINT('',(0.01875,1.14810637420064E-18,0.));
#654=CARTESIAN_POINT('',(0.,1.14810637420064E-18,0.));
#655=CARTESIAN_POINT('',(0.,1.14810637420064E-18,-0.0008));
#656=CARTESIAN_POINT('',(0.01875,1.14810637420064E-18,-0.0008));
#657=CARTESIAN_POINT('',(0.,0.,-0.0008));
#658=CARTESIAN_POINT('',(0.01855,-0.0025,0.0623));
#659=CARTESIAN_POINT('',(0.01855,0.0025,0.0623));
#660=CARTESIAN_POINT('',(0.0250217194648745,0.0025,0.0558282805351255));
#661=CARTESIAN_POINT('',(-0.000707106781186547,1.52162364794058E-18,0.0815571067811865));
#662=CARTESIAN_POINT('',(0.0250217194648745,-0.0025,0.0558282805351255));
#663=CARTESIAN_POINT('',(0.01855,-0.0025,0.0623));
#664=CARTESIAN_POINT('',(0.0178,0.0025,0.06155));
#665=CARTESIAN_POINT('',(0.0164286796564404,0.0025,0.0601786796564404));
#666=CARTESIAN_POINT('',(0.0267333593100455,0.0025,0.0565265100925527));
#667=CARTESIAN_POINT('',(0.0267333593100456,0.0025,0.056129406652645));
#668=CARTESIAN_POINT('',(0.026207699150718,0.0025,0.0553691551214877));
#669=CARTESIAN_POINT('',(0.0253024748240622,0.0025,0.0555475251759378));
#670=CARTESIAN_POINT('',(0.0250217194648745,0.0025,0.0558282805351255));
#671=CARTESIAN_POINT('',(0.0164286796564404,4.33680868994202E-19,0.0601786796564404));
#672=CARTESIAN_POINT('',(0.0164286796564404,-0.0025,0.0601786796564404));
#673=CARTESIAN_POINT('',(0.0174893398282202,-0.0025,0.0612393398282202));
#674=CARTESIAN_POINT('',(0.0250217194648745,-0.0025,0.0558282805351255));
#675=CARTESIAN_POINT('',(0.0253024753342287,-0.0025,0.0555475246657713));
#676=CARTESIAN_POINT('',(0.0262073954260694,-0.0025,0.0553690352309443));
#677=CARTESIAN_POINT('',(0.0267333593100456,-0.0025,0.056129401226309));
#678=CARTESIAN_POINT('',(0.0267333593100455,-0.0025,0.0565265100925527));
#679=CARTESIAN_POINT('',(-0.0164286796564404,4.33680868994202E-19,0.0601786796564404));
#680=CARTESIAN_POINT('',(-0.0164286796564404,0.0025,0.0601786796564404));
#681=CARTESIAN_POINT('',(-0.0164286796564404,-0.0025,0.0601786796564404));
#682=CARTESIAN_POINT('',(-0.0178,0.0025,0.06155));
#683=CARTESIAN_POINT('',(-0.01855,0.0025,0.0623));
#684=CARTESIAN_POINT('',(-0.0250217194648745,0.0025,0.0558282805351255));
#685=CARTESIAN_POINT('',(-0.0250217194648745,0.0025,0.0558282805351255));
#686=CARTESIAN_POINT('',(-0.0253024753342287,0.0025,0.0555475246657713));
#687=CARTESIAN_POINT('',(-0.0262073954260694,0.0025,0.0553690352309443));
#688=CARTESIAN_POINT('',(-0.0267333593100456,0.0025,0.056129401226309));
#689=CARTESIAN_POINT('',(-0.0267333593100455,0.0025,0.0565265100925527));
#690=CARTESIAN_POINT('',(-0.01855,-0.0025,0.0623));
#691=CARTESIAN_POINT('',(-0.01855,-0.0025,0.0623));
#692=CARTESIAN_POINT('',(-0.0250217194648745,-0.0025,0.0558282805351255));
#693=CARTESIAN_POINT('',(0.000707106781186547,1.52162364794058E-18,0.0815571067811865));
#694=CARTESIAN_POINT('',(-0.0174893398282202,-0.0025,0.0612393398282202));
#695=CARTESIAN_POINT('',(-0.0267333593100455,-0.0025,0.0565265100925527));
#696=CARTESIAN_POINT('',(-0.0267333593100456,-0.0025,0.056129406652645));
#697=CARTESIAN_POINT('',(-0.026207699150718,-0.0025,0.0553691551214877));
#698=CARTESIAN_POINT('',(-0.0253024748240622,-0.0025,0.0555475251759378));
#699=CARTESIAN_POINT('',(-0.0250217194648745,-0.0025,0.0558282805351255));
#700=CARTESIAN_POINT('',(0.,0.,0.0608));
#701=CARTESIAN_POINT('',(0.01545,-0.013425,0.0608));
#702=CARTESIAN_POINT('',(0.01545,-0.0199404112294607,0.0608));
#703=CARTESIAN_POINT('',(0.01645,-0.0199404112294607,0.0608));
#704=CARTESIAN_POINT('',(0.0156664463219823,-0.0205617353265829,0.0608));
#705=CARTESIAN_POINT('',(0.,1.52162364794058E-18,0.0608));
#706=CARTESIAN_POINT('',(-0.0156664463219823,-0.0205617353265829,0.0608));
#707=CARTESIAN_POINT('',(-0.01645,-0.0199404112294607,0.0608));
#708=CARTESIAN_POINT('',(-0.01545,-0.0199404112294607,0.0608));
#709=CARTESIAN_POINT('',(-0.01545,-0.013425,0.0608));
#710=CARTESIAN_POINT('',(-0.01545,-0.013425,0.0608));
#711=CARTESIAN_POINT('',(-0.01545,-0.0199404112294607,0.0376));
#712=CARTESIAN_POINT('',(-0.01545,-0.0199404112294607,0.0376));
#713=CARTESIAN_POINT('',(-0.01545,-0.0018,0.0376));
#714=CARTESIAN_POINT('',(0.01545,-0.013425,0.0608));
#715=CARTESIAN_POINT('',(0.01545,-0.0018,0.0376));
#716=CARTESIAN_POINT('',(0.01545,-0.0199404112294607,0.0376));
#717=CARTESIAN_POINT('',(0.01545,-0.0199404112294607,0.0608));
#718=CARTESIAN_POINT('',(-0.0039,-0.0018,0.0376));
#719=CARTESIAN_POINT('',(-0.01645,-0.0199404112294607,0.0376));
#720=CARTESIAN_POINT('',(-0.0156664463219823,-0.0205617353265829,0.0376));
#721=CARTESIAN_POINT('',(0.,1.52162364794058E-18,0.0376));
#722=CARTESIAN_POINT('',(0.0156664463219823,-0.0205617353265829,0.0376));
#723=CARTESIAN_POINT('',(0.01645,-0.0199404112294607,0.0376));
#724=CARTESIAN_POINT('',(-0.0250187961887999,0.00252990442089009,0.0558312038112));
#725=CARTESIAN_POINT('',(-0.026698243251054,0.00286022056585919,0.0541517567489459));
#726=CARTESIAN_POINT('',(-0.0267211023111852,0.00262777306386456,0.0565383105923866));
#727=CARTESIAN_POINT('',(-0.0251841263799678,0.00084870713123397,0.0556658736200321));
#728=CARTESIAN_POINT('',(-0.0269015529784588,0.000949981424666864,0.0539484470215679));
#729=CARTESIAN_POINT('',(-0.0268928282544089,0.000881539128573293,0.0563729804012084));
#730=CARTESIAN_POINT('',(-0.0251841263799502,-0.000848707131233938,0.0556658736200498));
#731=CARTESIAN_POINT('',(-0.0269015529784932,-0.000949981424616277,0.0539484470215262));
#732=CARTESIAN_POINT('',(-0.0268928282544089,-0.000881539128573313,0.0563729804012319));
#733=CARTESIAN_POINT('',(-0.0250187961887999,-0.00252990442089006,0.0558312038112));
#734=CARTESIAN_POINT('',(-0.026698243251054,-0.00286022056585914,0.054151756748946));
#735=CARTESIAN_POINT('',(-0.0267211023111852,-0.00262777306386453,0.0565383105923866));
#736=CARTESIAN_POINT('',(0.0250187961887999,-0.00252990442089013,0.0558312038112));
#737=CARTESIAN_POINT('',(0.026698243251054,-0.00286022056585923,0.0541517567489459));
#738=CARTESIAN_POINT('',(0.0267211023111852,-0.00262777306386461,0.0565383105923866));
#739=CARTESIAN_POINT('',(0.0251841263799399,-0.000848707131233629,0.0556658736200601));
#740=CARTESIAN_POINT('',(0.0269015529784097,-0.000949981424658834,0.0539484470216014));
#741=CARTESIAN_POINT('',(0.0268928282544086,-0.000881539128575824,0.0563729804012319));
#742=CARTESIAN_POINT('',(0.0251841263799502,0.000848707131233971,0.0556658736200498));
#743=CARTESIAN_POINT('',(0.0269015529784395,0.000949981424660603,0.053948447021591));
#744=CARTESIAN_POINT('',(0.0268928282544089,0.000881539128573348,0.0563729804012319));
#745=CARTESIAN_POINT('',(0.0250187961887999,0.00252990442089011,0.0558312038112));
#746=CARTESIAN_POINT('',(0.026698243251054,0.00286022056585921,0.0541517567489459));
#747=CARTESIAN_POINT('',(0.0267211023111852,0.00262777306386458,0.0565383105923866));
#748=CARTESIAN_POINT('',(0.,1.52162364794058E-18,0.0598));
#749=CARTESIAN_POINT('',(-0.0156664463219823,-0.0205617353265829,0.0608));
#750=CARTESIAN_POINT('',(-0.0158685675181165,-0.0208166309718185,0.0608));
#751=CARTESIAN_POINT('',(-0.0164658282828211,-0.021043505770611,0.0604761347988301));
#752=CARTESIAN_POINT('',(-0.0169103519255744,-0.0208570026986123,0.0600238856271326));
#753=CARTESIAN_POINT('',(-0.0170863636363636,-0.0207118004453005,0.0598));
#754=CARTESIAN_POINT('',(0.0156664463219823,-0.0205617353265829,0.0608));
#755=CARTESIAN_POINT('',(0.0158685675181165,-0.0208166309718185,0.0608));
#756=CARTESIAN_POINT('',(0.0164658282828211,-0.021043505770611,0.0604761347988301));
#757=CARTESIAN_POINT('',(0.0169103519255744,-0.0208570026986123,0.0600238856271326));
#758=CARTESIAN_POINT('',(0.0170863636363636,-0.0207118004453005,0.0598));
#759=CARTESIAN_POINT('',(0.01645,-0.0199404112294607,0.));
#760=CARTESIAN_POINT('',(0.0156664463219823,-0.0205617353265829,0.0376));
#761=CARTESIAN_POINT('',(0.0158685675181165,-0.0208166309718185,0.0376));
#762=CARTESIAN_POINT('',(0.0164658282828211,-0.021043505770611,0.0372761347988302));
#763=CARTESIAN_POINT('',(0.0169103519255744,-0.0208570026986123,0.0368238856271326));
#764=CARTESIAN_POINT('',(0.0170863636363636,-0.0207118004453005,0.0366));
#765=CARTESIAN_POINT('',(-0.01645,-0.0199404112294607,0.));
#766=CARTESIAN_POINT('',(-0.0156664463219823,-0.0205617353265829,0.0376));
#767=CARTESIAN_POINT('',(-0.0158685675181165,-0.0208166309718185,0.0376));
#768=CARTESIAN_POINT('',(-0.0164658282828211,-0.021043505770611,0.0372761347988302));
#769=CARTESIAN_POINT('',(-0.0169103519255744,-0.0208570026986123,0.0368238856271326));
#770=CARTESIAN_POINT('',(-0.0170863636363636,-0.0207118004453005,0.0366));
#771=CARTESIAN_POINT('',(0.,1.52162364794058E-18,0.0366));
#772=MECHANICAL_DESIGN_GEOMETRIC_PRESENTATION_REPRESENTATION('',(#421),
#773);
#773=(
GEOMETRIC_REPRESENTATION_CONTEXT(3)
GLOBAL_UNCERTAINTY_ASSIGNED_CONTEXT((#774))
GLOBAL_UNIT_ASSIGNED_CONTEXT((#777,#776,#775))
REPRESENTATION_CONTEXT('bottom','TOP_LEVEL_ASSEMBLY_PART')
);
#774=UNCERTAINTY_MEASURE_WITH_UNIT(LENGTH_MEASURE(2.E-5),#777,
'DISTANCE_ACCURACY_VALUE','Maximum Tolerance applied to model');
#775=(
NAMED_UNIT(*)
SI_UNIT($,.STERADIAN.)
SOLID_ANGLE_UNIT()
);
#776=(
NAMED_UNIT(*)
PLANE_ANGLE_UNIT()
SI_UNIT($,.RADIAN.)
);
#777=(
LENGTH_UNIT()
NAMED_UNIT(*)
SI_UNIT($,.METRE.)
);
#778=PRODUCT_DEFINITION_SHAPE('','',#779);
#779=PRODUCT_DEFINITION('','',#781,#780);
#780=PRODUCT_DEFINITION_CONTEXT('',#787,'design');
#781=PRODUCT_DEFINITION_FORMATION_WITH_SPECIFIED_SOURCE('','',#783,
 .NOT_KNOWN.);
#782=PRODUCT_RELATED_PRODUCT_CATEGORY('','',(#783));
#783=PRODUCT('bottom','bottom','bottom',(#785));
#784=PRODUCT_CATEGORY('','');
#785=PRODUCT_CONTEXT('',#787,'mechanical');
#786=APPLICATION_PROTOCOL_DEFINITION('international standard',
'ap242_managed_model_based_3d_engineering',2020,#787);
#787=APPLICATION_CONTEXT('managed model based 3d engineering');
ENDSEC;
END-ISO-10303-21;
